<svg width="66" height="76" viewBox="0 0 66 76" fill="none" xmlns="http://www.w3.org/2000/svg">
<path d="M37.5 1.29418C37.5 1.29418 56.5 -2.70587 58.5 18.7942C60.5 40.2942 45.5 42.2942 45.5 42.2942" stroke="white" stroke-width="2" stroke-linecap="round"/>
<path d="M33 66C35 61 42 57 49.5 57.5C57 58 65 63.5 65 66C65 68.5 57.5 73.5 49.5 74C41.5 74.5 33.5 68.5 33 66ZM33 66C31.5 67.9258 24 74.5 16 74C8 73.5 1 68 1 66.5C0.999999 65 6 58 16 57.5C26 57 31 64.5 33 66ZM33 66C25.3086 61.3264 24 59 24 50C24 41 29 34 33 34C36.5 34 42.5 41 41.5 50C40.5 59 39.5 60.4717 33 66Z" stroke="white" stroke-width="2"/>
<path d="M25.0598 20.5148C25.5438 16.401 28.4257 13.2732 32.5598 13.0148C37.2451 12.722 41.0598 16.8204 41.0598 21.5148C41.0598 26.2092 37.2472 30.2714 32.5598 30.0148C27.8401 29.7564 24.5075 25.2092 25.0598 20.5148Z" stroke="white" stroke-width="2"/>
</svg>
